<svg width="641" height="111" viewBox="0 0 641 111" fill="none" xmlns="http://www.w3.org/2000/svg">
<path d="M197 1C221 1 221 1 228.375 8.1875C230.146 10.5842 230.146 10.5842 231.328 12.6289C233.686 16.5308 236.285 20.0658 239.125 23.625C239.918 24.664 240.711 25.703 241.527 26.7734C244.638 30.846 247.81 34.869 250.983 38.8931C254.676 43.5795 258.336 48.2895 262 53C262.33 35.84 262.66 18.68 263 1C272.9 1 282.8 1 293 1C293 36.31 293 71.62 293 108C268 108 268 108 261.438 102.125C259.051 98.496 259.051 98.496 257.999 96.679C256.597 94.322 254.886 92.285 253.125 90.188C252.499 89.397 251.872 88.607 251.227 87.793C247.822 83.523 244.368 79.293 240.918 75.059C236.58 69.731 232.293 64.3662 228 59C227.67 75.17 227.34 91.34 227 108C217.1 108 207.2 108 197 108C197 72.69 197 37.38 197 1Z" fill="white"/>
<path d="M400 1.4526C408.848 1.3701 417.696 1.2876 426.812 1.2026C430.969 1.148 430.969 1.14801 435.21 1.09231C437.438 1.08061 439.666 1.07041 441.895 1.06201C443.591 1.03131 443.591 1.03131 445.323 1.00001C456.316 0.995206 465.906 3.76981 474 11.4526C482.373 20.2379 485.609 29.539 485.477 41.5969C485.118 50.0428 482.113 56.7899 477 63.4526C476.072 64.2982 475.144 65.1439 474.188 66.0151C473.466 66.8195 472.744 67.6236 472 68.4526C472.298 72.6836 474.12 75.7716 476.238 79.3826C476.894 80.5076 477.549 81.6326 478.225 82.7926C478.92 83.9706 479.616 85.1496 480.312 86.3276C480.997 87.4976 481.682 88.6686 482.365 89.8396C485.855 95.8096 485.855 95.8096 489.373 101.763C492 106.235 492 106.235 492 108.453C468.042 111.704 468.042 111.704 459 108.453C450.922 102.146 447.502 91.5356 444.186 82.1486C443.347 79.9426 443.347 79.9426 441 77.4526C437.37 77.1226 433.74 76.7926 430 76.4526C430 87.0126 430 97.5726 430 108.453C420.1 108.453 410.2 108.453 400 108.453C400 73.1426 400 37.8326 400 1.4526ZM430 27.4526C430 34.7126 430 41.9726 430 49.4526C433.238 49.5145 436.476 49.5764 439.812 49.6401C440.829 49.6674 441.846 49.6947 442.894 49.7229C443.698 49.7304 444.503 49.7379 445.332 49.7456C446.154 49.7613 446.976 49.777 447.823 49.7932C450.519 49.3714 451.326 48.559 453 46.4526C455.173 42.65 455.211 39.5962 454.551 35.3862C453.711 32.4398 452.139 30.5915 450 28.4526C447.703 27.3043 446.417 27.337 443.867 27.3549C443.141 27.3574 442.415 27.3599 441.667 27.3625C440.746 27.3716 439.824 27.3807 438.875 27.3901C434.482 27.421 434.482 27.421 430 27.4526Z" fill="white"/>
<path d="M112 1C136.75 1 161.5 1 187 1C187 9.58 187 18.16 187 27C172.15 27 157.3 27 142 27C142 31.95 142 36.9 142 42C154.87 42 167.74 42 181 42C181 49.92 181 57.84 181 66C168.13 66 155.26 66 142 66C142 71.28 142 76.56 142 82C157.51 82 173.02 82 189 82C189 90.58 189 99.16 189 108C163.59 108 138.18 108 112 108C112 72.69 112 37.38 112 1Z" fill="white"/>
<path d="M539 1.0792C543.447 0.855696 547.891 0.692996 552.342 0.584796C553.854 0.539696 555.365 0.478394 556.875 0.400294C569.291 -0.225806 569.291 -0.225804 573.121 2.6986C574.741 5.0769 575.852 7.4407 577 10.0792C578.127 12.0584 579.271 14.0281 580.43 15.9894C581.582 18.0381 582.73 20.0889 583.875 22.1417C584.468 23.1981 585.061 24.2545 585.672 25.3429C587.118 27.9199 588.56 30.4987 590 33.0792C591.032 31.3183 592.064 29.557 593.092 27.7938C594 26.258 594.923 24.7315 595.861 23.2142C598.187 19.4126 600.181 15.8647 601.543 11.6105C603.179 7.0795 604.591 3.4401 609 1.0792C619.498 -0.815204 630.435 0.179296 641 1.0792C639.787 4.2621 638.463 7.1818 636.707 10.0987C636.02 11.2441 636.02 11.2441 635.318 12.4127C634.821 13.2308 634.324 14.0488 633.812 14.8917C633.294 15.751 632.776 16.6103 632.242 17.4957C627.254 25.7341 622.14 33.8942 616.99 42.0316C615.805 43.9105 614.636 45.7986 613.484 47.6976C612 50.0792 612 50.0792 609.691 53.1144C608.828 56.8163 609.516 57.6792 611.312 60.9581C612.518 62.868 613.749 64.7618 615 66.6417C615.641 67.6452 616.281 68.6482 616.941 69.6822C618.278 71.7772 619.625 73.8662 620.979 75.9502C624.11 80.7972 627.11 85.7222 630.125 90.6422C634.138 97.1632 634.138 97.1632 638.367 103.544C640 106.079 640 106.079 640 108.079C629.11 108.079 618.22 108.079 607 108.079C599.125 93.6422 599.125 93.6422 596.649 89.0812C595.998 87.8942 595.347 86.7072 594.695 85.5202C594.36 84.8992 594.025 84.2782 593.679 83.6382C591.953 80.2692 591.953 80.2692 589 78.0792C588.737 78.7812 588.474 79.4832 588.204 80.2072C586.911 83.2922 585.386 86.1222 583.742 89.0362C582.897 90.5402 582.897 90.5402 582.035 92.0742C581.322 93.3342 580.609 94.5942 579.875 95.8922C576.472 101.924 576.472 101.924 573 108.079C562.11 108.079 551.22 108.079 540 108.079C546.746 95.7122 546.746 95.7122 549.77 90.8452C550.427 89.7832 551.085 88.7222 551.763 87.6282C552.439 86.5392 553.116 85.4512 553.812 84.3292C554.517 83.1772 555.221 82.0252 555.924 80.8722C558.917 75.9752 561.916 71.1142 565.254 66.4425C569.7 60.5141 569.7 60.5141 570.656 53.4737C569.417 51.036 567.978 48.9675 566.292 46.8194C564.177 43.9716 562.402 40.9214 560.566 37.8895C558.913 35.1646 557.235 32.4579 555.547 29.755C554.68 28.3659 554.68 28.3659 553.795 26.9488C552.576 24.9999 551.356 23.0517 550.135 21.1041C548.905 19.1416 547.676 17.1781 546.449 15.2135C545.291 13.3585 544.129 11.5058 542.963 9.65589C542.443 8.82229 541.923 7.9888 541.387 7.13C540.925 6.3943 540.463 5.65869 539.987 4.90069C539 3.07919 539 3.0792 539 1.0792Z" fill="white"/>
<path d="M0 1.0998C10.56 1.0998 21.12 1.0998 32 1.0998C33.829 5.9774 35.502 10.5507 36.901 15.5158C37.241 16.7165 37.581 17.9171 37.932 19.1541C38.292 20.4381 38.652 21.722 39.012 23.006C39.388 24.3399 39.765 25.6737 40.142 27.0074C41.127 30.4917 42.107 33.9771 43.087 37.4628C44.09 41.03 45.097 44.5961 46.104 48.1623C48.073 55.1404 50.038 62.1197 52 69.0998C54.097 65.9539 54.858 63.5289 55.864 59.9001C56.038 59.277 56.212 58.654 56.392 58.012C56.965 55.9567 57.531 53.8993 58.098 51.842C58.495 50.4136 58.894 48.9854 59.293 47.5573C60.341 43.8008 61.383 40.0427 62.423 36.2841C64.091 30.2603 65.764 24.2381 67.444 18.2175C68.03 16.1105 68.612 14.0023 69.194 11.894C69.547 10.6224 69.901 9.3508 70.266 8.0407C70.733 6.3522 70.733 6.3522 71.21 4.6295C72 2.0998 72 2.0998 73 1.0998C75.292 1.0119 77.586 0.9929 79.879 1.0021C80.909 1.0043 80.909 1.0043 81.96 1.0064C84.161 1.012 86.362 1.0246 88.562 1.0373C90.051 1.0423 91.54 1.0469 93.029 1.051C96.686 1.062 100.343 1.0793 104 1.0998C102.508 8.6523 100.199 15.7579 97.668 23.0217C97.239 24.2645 96.811 25.5073 96.369 26.7878C95.218 30.1237 94.061 33.4575 92.902 36.7909C91.947 39.5425 90.995 42.2953 90.044 45.0482C82.769 66.0911 75.428 87.1108 68 108.1C57.77 108.1 47.54 108.1 37 108.1C35.97 105.12 34.94 102.139 33.879 99.0688C32.441 94.9118 31.002 90.7558 29.562 86.5998C29.186 85.5138 28.81 84.4278 28.423 83.3088C24.053 70.6948 19.657 58.0904 15.191 45.5099C14.806 44.4233 14.42 43.3366 14.023 42.2169C12.169 36.9979 10.31 31.7805 8.448 26.5646C7.77 24.661 7.092 22.7574 6.414 20.8537C6.112 20.0108 5.809 19.1679 5.498 18.2995C3.47 12.5994 1.744 6.9121 0 1.0998Z" fill="white"/>
<path d="M301 1C331.03 1 361.06 1 392 1C392 9.58 392 18.16 392 27C382.1 27 372.2 27 362 27C362 53.73 362 80.46 362 108C352.1 108 342.2 108 332 108C332 81.27 332 54.54 332 27C321.77 27 311.54 27 301 27C301 18.42 301 9.84 301 1Z" fill="white"/>
<path d="M500 1C510.23 1 520.46 1 531 1C531 36.31 531 71.62 531 108C520.77 108 510.54 108 500 108C500 72.69 500 37.38 500 1Z" fill="white"/>
</svg>
