<svg width="646" height="163" viewBox="0 0 646 163" fill="none" xmlns="http://www.w3.org/2000/svg">
<path d="M31.7 34.5L52.55 107.25L73.1 34.5H103.85L67.1 141H38L0.8 34.5H31.7ZM186.331 115.5V141H110.431V34.5H184.981V60H139.681V75H178.381V98.7H139.681V115.5H186.331ZM227.683 88.65V141H198.433V34.5H221.233L263.983 88.65V34.5H293.233V141H269.983L227.683 88.65ZM392.969 60H362.369V141H333.119V60H302.369V34.5H392.969V60ZM402.123 141V34.5H451.023C456.223 34.5 461.023 35.55 465.423 37.65C469.823 39.75 473.623 42.6 476.823 46.2C480.023 49.7 482.473 53.65 484.173 58.05C485.973 62.45 486.873 66.9 486.873 71.4C486.873 75.5 486.273 79.45 485.073 83.25C483.873 87.05 482.123 90.55 479.823 93.75C477.523 96.85 474.773 99.55 471.573 101.85L494.073 141H461.973L443.223 108.3H431.373V141H402.123ZM431.373 82.8H449.823C451.023 82.8 452.173 82.35 453.273 81.45C454.373 80.55 455.273 79.25 455.973 77.55C456.773 75.85 457.173 73.8 457.173 71.4C457.173 68.9 456.723 66.85 455.823 65.25C455.023 63.55 453.973 62.25 452.673 61.35C451.473 60.45 450.273 60 449.073 60H431.373V82.8ZM501.843 141V34.5H531.093V141H501.843ZM568.801 34.5L588.151 68.1L607.501 34.5H639.001L605.551 88.5L637.801 141H606.301L588.151 108.9L570.001 141H538.351L570.601 88.5L537.151 34.5H568.801Z" fill="white"/>
</svg>
