<svg width="224" height="32" viewBox="0 0 224 32" fill="none" xmlns="http://www.w3.org/2000/svg">
<path d="M99.5116 0.303375C106.258 0.303375 106.258 0.303375 108.331 2.32383C108.829 2.99756 108.829 2.99756 109.161 3.57233C109.824 4.66919 110.555 5.66289 111.353 6.6634C111.576 6.95547 111.799 7.24753 112.029 7.54845C112.903 8.69326 113.795 9.82417 114.687 10.9553C115.725 12.2727 116.754 13.5967 117.784 14.9209C117.876 10.0971 117.969 5.27333 118.065 0.303375C120.848 0.303375 123.631 0.303375 126.498 0.303375C126.498 10.2292 126.498 20.1551 126.498 30.3817C119.47 30.3817 119.47 30.3817 117.625 28.7302C116.954 27.7101 116.954 27.7101 116.659 27.1994C116.265 26.5367 115.784 25.9642 115.289 25.3745C115.113 25.1524 114.936 24.9303 114.755 24.7014C113.798 23.501 112.827 22.3119 111.857 21.1219C110.638 19.624 109.433 18.116 108.226 16.6075C108.133 21.153 108.04 25.6985 107.945 30.3817C105.162 30.3817 102.379 30.3817 99.5116 30.3817C99.5116 20.4559 99.5116 10.53 99.5116 0.303375Z" fill="white"/>
<path d="M156.857 0.303358C159.345 0.280166 161.832 0.256975 164.394 0.233081C165.563 0.217726 165.563 0.217726 166.755 0.202061C167.381 0.198773 168.008 0.195908 168.634 0.193551C169.111 0.184922 169.111 0.184922 169.598 0.176119C172.688 0.174779 175.384 0.954748 177.659 3.11442C180.013 5.58402 180.922 8.19862 180.885 11.5882C180.785 13.9624 179.94 15.859 178.502 17.7319C178.242 17.9697 177.981 18.2074 177.712 18.4523C177.509 18.6784 177.306 18.9045 177.097 19.1375C177.181 20.3269 177.693 21.195 178.288 22.2099C178.473 22.5262 178.657 22.8426 178.847 23.1685C179.042 23.4998 179.238 23.831 179.434 24.1623C179.626 24.4912 179.818 24.8203 180.011 25.1494C180.991 26.8276 180.991 26.8276 181.98 28.501C182.719 29.7581 182.719 29.7581 182.719 30.3817C175.984 31.2955 175.984 31.2955 173.443 30.3817C171.172 28.6089 170.21 25.6264 169.278 22.9875C169.042 22.3675 169.042 22.3675 168.383 21.6674C167.362 21.5747 166.342 21.4819 165.29 21.3863C165.29 24.3548 165.29 27.3233 165.29 30.3817C162.507 30.3817 159.725 30.3817 156.857 30.3817C156.857 20.4559 156.857 10.53 156.857 0.303358ZM165.29 7.61212C165.29 9.65295 165.29 11.6938 165.29 13.7965C166.201 13.8139 167.111 13.8312 168.049 13.8492C168.335 13.8568 168.62 13.8645 168.915 13.8724C169.141 13.8745 169.367 13.8766 169.6 13.8788C169.831 13.8832 170.063 13.8876 170.301 13.8922C171.058 13.7736 171.285 13.5453 171.756 12.9531C172.367 11.8842 172.377 11.0258 172.192 9.8423C171.956 9.01404 171.514 8.49449 170.913 7.89323C170.267 7.57044 169.905 7.57962 169.189 7.58467C168.985 7.58537 168.78 7.58607 168.57 7.5868C168.311 7.58935 168.052 7.59191 167.785 7.59455C166.55 7.60325 166.55 7.60325 165.29 7.61212Z" fill="white"/>
<path d="M74.7742 0.303375C81.7316 0.303375 88.689 0.303375 95.8572 0.303375C95.8572 2.71527 95.8572 5.12716 95.8572 7.61214C91.6828 7.61214 87.5083 7.61214 83.2074 7.61214C83.2074 9.00361 83.2074 10.3951 83.2074 11.8287C86.8253 11.8287 90.4431 11.8287 94.1706 11.8287C94.1706 14.0551 94.1706 16.2815 94.1706 18.5753C90.5527 18.5753 86.9349 18.5753 83.2074 18.5753C83.2074 20.0595 83.2074 21.5438 83.2074 23.073C87.5674 23.073 91.9273 23.073 96.4194 23.073C96.4194 25.4849 96.4194 27.8968 96.4194 30.3817C89.2765 30.3817 82.1336 30.3817 74.7742 30.3817C74.7742 20.4559 74.7742 10.53 74.7742 0.303375Z" fill="white"/>
<path d="M194.807 0.303369C196.057 0.240552 197.306 0.194804 198.557 0.164395C198.982 0.151715 199.407 0.13448 199.832 0.112511C203.322 -0.0634886 203.322 -0.0634886 204.398 0.758589C204.854 1.42714 205.166 2.09164 205.489 2.83333C205.806 3.38969 206.127 3.9434 206.453 4.49471C206.777 5.07063 207.099 5.64712 207.421 6.22417C207.588 6.52113 207.755 6.81808 207.926 7.12404C208.333 7.84845 208.738 8.57336 209.143 9.29877C209.433 8.80378 209.723 8.30867 210.012 7.81301C210.267 7.38128 210.527 6.95218 210.791 6.52566C211.444 5.45699 212.005 4.45968 212.388 3.26377C212.848 1.99009 213.245 0.967037 214.484 0.303369C217.435 -0.229165 220.51 0.0504097 223.479 0.303369C223.139 1.1981 222.766 2.01886 222.273 2.83882C222.079 3.1608 222.079 3.1608 221.882 3.48929C221.743 3.71925 221.603 3.94922 221.459 4.18615C221.313 4.42771 221.168 4.66927 221.018 4.91815C219.615 7.23401 218.178 9.52788 216.73 11.8153C216.397 12.3435 216.068 12.8743 215.744 13.4081C215.327 14.0776 215.327 14.0776 214.678 14.9308C214.436 15.9714 214.629 16.214 215.134 17.1357C215.473 17.6726 215.819 18.2049 216.171 18.7334C216.351 19.0155 216.531 19.2976 216.716 19.5882C217.092 20.1771 217.471 20.7644 217.852 21.3501C218.731 22.7127 219.575 24.0972 220.422 25.4799C221.55 27.3131 221.55 27.3131 222.739 29.1069C223.198 29.8195 223.198 29.8195 223.198 30.3817C220.137 30.3817 217.076 30.3817 213.922 30.3817C211.708 26.3233 211.708 26.3233 211.012 25.0413C210.829 24.7076 210.646 24.374 210.463 24.0404C210.369 23.8658 210.274 23.6912 210.177 23.5113C209.692 22.5643 209.692 22.5643 208.862 21.9485C208.788 22.1459 208.714 22.3433 208.638 22.5467C208.275 23.4141 207.846 24.2096 207.384 25.0286C207.146 25.4514 207.146 25.4514 206.904 25.8827C206.704 26.2368 206.503 26.5909 206.297 26.9558C205.34 28.6516 205.34 28.6516 204.364 30.3817C201.303 30.3817 198.242 30.3817 195.088 30.3817C196.984 26.9053 196.984 26.9053 197.834 25.537C198.019 25.2387 198.204 24.9403 198.394 24.6329C198.585 24.3268 198.775 24.0208 198.97 23.7055C199.169 23.3817 199.367 23.0577 199.564 22.7336C200.405 21.357 201.248 19.9906 202.187 18.6774C203.437 17.0109 203.437 17.0109 203.705 15.0318C203.357 14.3465 202.952 13.7651 202.479 13.1612C201.884 12.3607 201.385 11.5033 200.869 10.651C200.404 9.88498 199.933 9.12411 199.458 8.36431C199.214 7.97384 199.214 7.97384 198.966 7.57548C198.623 7.02764 198.28 6.47998 197.937 5.93249C197.591 5.38083 197.246 4.82887 196.901 4.2766C196.575 3.75514 196.248 3.23436 195.921 2.71432C195.774 2.48001 195.628 2.2457 195.478 2.00428C195.348 1.79749 195.218 1.59069 195.084 1.37763C194.807 0.865582 194.807 0.865582 194.807 0.303369Z" fill="white"/>
<path d="M0 0.584513C2.1336 0.584513 4.26719 0.584513 6.46544 0.584513C6.81331 1.33243 6.81331 1.33243 7.16821 2.09546C8.94936 5.63291 11.9702 8.92731 15.1797 11.2665C15.3653 11.2665 15.5508 11.2665 15.7419 11.2665C16.1321 10.6466 16.493 10.026 16.8488 9.38665C18.5478 6.44897 21.3605 2.1324 24.4562 0.584513C25.1945 0.560149 25.9252 0.552017 26.6634 0.557061C26.881 0.557459 27.0985 0.557857 27.3227 0.558267C28.0187 0.559842 28.7147 0.563371 29.4107 0.566944C29.8822 0.568353 30.3536 0.569636 30.8251 0.570787C31.9817 0.573889 33.1383 0.578743 34.295 0.584513C34.4341 1.4194 34.4341 1.4194 34.5761 2.27115C34.375 2.34326 34.1738 2.41537 33.9666 2.48967C28.1498 4.72459 23.9057 9.11866 21.2916 14.7255C21.2228 14.8827 21.1539 15.04 21.083 15.202C21.2765 15.2687 21.47 15.3354 21.6693 15.4041C22.6501 15.8353 23.4871 16.4044 24.3508 17.0292C24.5232 17.1539 24.6956 17.2786 24.8732 17.4071C29.2919 20.6559 33.1662 24.7353 34.1193 30.3291C34.2062 31.0509 34.2062 31.0509 34.295 31.7873C32.2541 31.7873 30.2133 31.7873 28.1106 31.7873C27.9193 31.2829 27.728 30.7785 27.5308 30.2588C26.8185 28.5587 25.9661 27.2493 24.7373 25.8841C24.5493 25.6732 24.3612 25.4623 24.1674 25.245C22.5685 23.5507 20.8084 22.3312 18.8341 21.1053C18.6605 21.4314 18.487 21.7575 18.3081 22.0935C16.8882 24.7272 15.4592 27.265 13.4931 29.5385C13.358 29.7328 13.223 29.9271 13.0838 30.1273C12.2126 31.2244 11.5994 31.7266 10.1938 31.967C8.94861 32.0361 7.71013 31.9839 6.46544 31.9279C6.0288 31.9166 5.59213 31.9063 5.15544 31.8971C4.09218 31.8725 3.03027 31.8338 1.96774 31.7873C1.8286 31.0916 1.8286 31.0916 1.68664 30.3818C1.89753 30.2894 2.10843 30.197 2.32571 30.1018C4.51777 29.083 6.17837 27.8852 7.87097 26.1652C8.10361 25.932 8.10361 25.932 8.34095 25.6941C10.1169 23.7702 12.9309 20.1884 12.9309 17.4509C12.433 17.0552 11.9201 16.6783 11.4024 16.3089C6.21485 12.4436 1.10127 7.19212 0 0.584513Z" fill="white"/>
<path d="M43.8526 0.303411C46.8211 0.303411 49.7896 0.303411 52.848 0.303411C53.3622 1.67453 53.8325 2.96013 54.2257 4.35584C54.3213 4.69335 54.417 5.03086 54.5155 5.37859C54.6167 5.73952 54.7179 6.10045 54.819 6.46139C54.9249 6.83635 55.0308 7.21129 55.1368 7.5862C55.4136 8.56565 55.6892 9.54543 55.9645 10.5253C56.2465 11.528 56.5296 12.5305 56.8126 13.533C57.3662 15.4946 57.9185 17.4565 58.4701 19.4186C59.0597 18.5343 59.2736 17.8526 59.5562 16.8325C59.6052 16.6574 59.6541 16.4822 59.7046 16.3018C59.8659 15.724 60.025 15.1457 60.1842 14.5674C60.296 14.1658 60.408 13.7644 60.5201 13.3629C60.8147 12.3069 61.1077 11.2505 61.4001 10.1939C61.8689 8.50061 62.3394 6.80774 62.8114 5.11531C62.9763 4.52301 63.1399 3.93038 63.3034 3.33772C63.4028 2.98027 63.5023 2.62282 63.6048 2.25455C63.7361 1.77989 63.7361 1.77989 63.8701 1.29565C64.0922 0.584517 64.0922 0.584517 64.3734 0.303411C65.0175 0.278699 65.6624 0.273349 66.3071 0.275959C66.5966 0.276555 66.5966 0.276555 66.892 0.277164C67.5107 0.278742 68.1294 0.282271 68.7481 0.285842C69.1666 0.287251 69.5852 0.288534 70.0037 0.289685C71.0317 0.29279 72.0597 0.297646 73.0876 0.303411C72.6683 2.42647 72.0191 4.4239 71.3077 6.46579C71.1872 6.81515 71.0667 7.16452 70.9425 7.52447C70.619 8.46222 70.2937 9.39937 69.968 10.3364C69.6995 11.1099 69.4319 11.8837 69.1644 12.6576C67.1195 18.5729 65.0559 24.4816 62.9678 30.3818C60.0921 30.3818 57.2164 30.3818 54.2535 30.3818C53.964 29.544 53.6745 28.7062 53.3762 27.843C52.972 26.6746 52.5674 25.5063 52.1628 24.338C52.0571 24.0327 51.9514 23.7274 51.8424 23.4128C50.6139 19.867 49.3783 16.3238 48.123 12.7874C48.0146 12.4819 47.9061 12.1764 47.7944 11.8617C47.2733 10.3946 46.7509 8.92794 46.2272 7.46174C46.0367 6.92661 45.8462 6.39148 45.6556 5.85636C45.5706 5.61942 45.4856 5.38248 45.398 5.13836C44.8282 3.53602 44.3428 1.93728 43.8526 0.303411Z" fill="white"/>
<path d="M128.747 0.303375C137.188 0.303375 145.63 0.303375 154.327 0.303375C154.327 2.71527 154.327 5.12716 154.327 7.61214C151.544 7.61214 148.761 7.61214 145.894 7.61214C145.894 15.1261 145.894 22.6401 145.894 30.3817C143.111 30.3817 140.328 30.3817 137.461 30.3817C137.461 22.8678 137.461 15.3538 137.461 7.61214C134.585 7.61214 131.709 7.61214 128.747 7.61214C128.747 5.20024 128.747 2.78835 128.747 0.303375Z" fill="white"/>
<path d="M184.687 0.303375C187.562 0.303375 190.438 0.303375 193.401 0.303375C193.401 10.2292 193.401 20.1551 193.401 30.3817C190.525 30.3817 187.65 30.3817 184.687 30.3817C184.687 20.4559 184.687 10.53 184.687 0.303375Z" fill="white"/>
</svg>
