<svg width="143" height="118" viewBox="0 0 143 118" fill="none" xmlns="http://www.w3.org/2000/svg">
<path d="M0 0.108375C8.82415 0.108375 17.6483 0.108375 26.7398 0.108375C28.1786 2.91506 28.1786 2.91506 29.6463 5.77844C37.0128 19.0533 49.5065 31.416 62.7805 40.1944C63.5478 40.1944 64.3151 40.1944 65.1057 40.1944C66.7193 37.8678 68.2117 35.5389 69.6834 33.1398C76.7103 22.1157 88.3428 5.91706 101.146 0.108375C104.2 0.0169442 107.222 -0.0135727 110.275 0.00535754C111.174 0.00685016 112.074 0.00834278 113.002 0.00988063C115.88 0.0157928 118.759 0.0290351 121.637 0.0424437C123.587 0.0477334 125.537 0.0525469 127.487 0.0568661C132.27 0.0685068 137.054 0.0867224 141.837 0.108375C142.413 3.24141 142.413 3.24141 143 6.43775C142.168 6.70835 141.336 6.97896 140.48 7.25776C116.422 15.6447 98.8694 32.1341 88.058 53.1745C87.7732 53.7647 87.4885 54.3549 87.1951 54.9629C87.9954 55.2131 88.7957 55.4633 89.6202 55.7211C93.6763 57.3393 97.1383 59.475 100.71 61.8197C101.423 62.2877 102.136 62.7556 102.871 63.2378C121.146 75.4294 137.169 90.7381 141.111 111.729C141.47 114.438 141.47 114.438 141.837 117.202C133.397 117.202 124.956 117.202 116.26 117.202C115.469 115.309 114.678 113.416 113.862 111.466C110.916 105.086 107.391 100.172 102.309 95.0489C101.531 94.2575 100.753 93.4661 99.952 92.6507C93.3392 86.2925 86.0595 81.7164 77.8943 77.1157C77.1764 78.3396 76.4586 79.5634 75.719 80.8243C69.8463 90.7075 63.9361 100.231 55.8049 108.763C55.2463 109.492 54.6876 110.221 54.1121 110.972C50.509 115.089 47.973 116.974 42.1596 117.876C37.0098 118.135 31.8876 117.94 26.7398 117.729C24.934 117.687 23.128 117.648 21.3219 117.614C16.9245 117.521 12.5326 117.376 8.13821 117.202C7.56272 114.591 7.56272 114.591 6.97561 111.927C7.84783 111.581 8.72006 111.234 9.61871 110.876C18.6846 107.054 25.5525 102.558 32.5528 96.1038C33.515 95.2288 33.515 95.2288 34.4966 94.3361C41.8416 87.1161 53.4797 73.6751 53.4797 63.4021C51.4205 61.9171 49.2992 60.5029 47.158 59.1166C25.7034 44.6113 4.55463 24.9044 0 0.108375Z" fill="white"/>
</svg>
