<svg width="124" height="112" viewBox="0 0 124 112" fill="none" xmlns="http://www.w3.org/2000/svg">
<path d="M0 0.679806C7.92 0.679806 15.84 0.679806 24 0.679806C25.4541 3.55701 25.4541 3.55701 26.9375 6.49231C33.8727 19.6719 44.1703 29.8545 56 38.6798C56.6548 37.5429 57.3097 36.4059 57.9844 35.2345C62.5927 27.3808 67.2916 19.8394 73.25 12.9298C73.7202 12.3831 74.1904 11.8364 74.6748 11.2731C76.0766 9.69711 77.5262 8.18851 79 6.67981C79.4976 6.15631 79.9953 5.63281 80.508 5.09341C84.3743 1.37121 87.0564 -0.00329407 92.4343 5.92626e-06C93.2075 0.0310059 93.9807 0.0620066 94.777 0.0939066C95.994 0.106607 95.994 0.106606 97.236 0.119606C99.805 0.152906 102.37 0.228206 104.938 0.304806C106.688 0.334906 108.439 0.362307 110.189 0.386807C114.461 0.452707 118.73 0.556106 123 0.679806C123.495 2.65981 123.495 2.65981 124 4.67981C122.442 5.40681 122.442 5.40681 120.852 6.14861C112.409 10.1713 104.948 14.3095 98 20.6798C97.318 21.2818 96.636 21.8838 95.934 22.504C87.2637 30.5971 80.8344 40.9179 76 51.6798C76.6664 52.0807 77.3329 52.4816 78.0195 52.8947C96.986 64.593 114.62 79.9788 121.344 101.864C122.097 105.095 122.531 108.395 123 111.68C115.41 111.68 107.82 111.68 100 111.68C99.505 110.092 99.01 108.504 98.5 106.868C92.8825 91.5668 80.6388 81.7438 67 73.6798C66.7244 74.2428 66.4488 74.8058 66.1648 75.3858C60.1782 87.4968 53.9674 98.5308 45 108.68C44.6213 109.223 44.2425 109.766 43.8523 110.325C40.8738 112.504 37.5962 112.046 34.0508 111.973C32.8919 111.967 32.8919 111.967 31.7095 111.96C29.2435 111.943 26.7783 111.906 24.3125 111.868C22.64 111.852 20.9675 111.839 19.2949 111.826C15.1963 111.793 11.0983 111.742 7 111.68C6.67 110.36 6.34 109.04 6 107.68C6.7502 107.351 7.5005 107.023 8.2734 106.684C16.083 103.055 21.9611 98.7928 28 92.6798C28.6136 92.0878 29.2272 91.4968 29.8594 90.8868C37.8279 82.6078 43.2131 71.4178 47 60.6798C46.166 60.0507 45.332 59.4217 44.4727 58.7736C34.8504 51.4744 25.6068 44.1456 18 34.6798C17.3632 33.8922 16.7264 33.1046 16.0703 32.2931C11.9672 26.9526 8.6459 21.4286 5.625 15.4298C5.2912 14.7685 4.9574 14.1072 4.6135 13.4259C2.52053 9.12911 1.36018 5.44041 0 0.679806Z" fill="url(#paint0_linear_35_7)"/>
<defs>
<linearGradient id="paint0_linear_35_7" x1="62" y1="5.92626e-06" x2="62" y2="112.062" gradientUnits="userSpaceOnUse">
<stop stop-color="#4F306C"/>
<stop offset="1" stop-color="#605DD2"/>
</linearGradient>
</defs>
</svg>
